<?xml version="1.0" encoding="iso-8859-1"?>
<!-- Uploaded to: SVG Repo, www.svgrepo.com, Generator: SVG Repo Mixer Tools -->
<svg height="800px" width="800px" version="1.1" id="Layer_1" xmlns="http://www.w3.org/2000/svg" xmlns:xlink="http://www.w3.org/1999/xlink" 
	 viewBox="0 0 390.271 390.271" xml:space="preserve">
<path style="fill:#56ACE0;" d="M289.972,126.836v53.139h-4.848c-53.139,0-97.034,39.564-104.081,90.505H21.689V126.836H289.972z"/>
<g>
	<path style="fill:#FFC10D;" d="M289.972,55.273h-42.796v22.756c0,5.947-4.848,10.861-10.861,10.861
		c-5.947,0-10.861-4.848-10.861-10.861V55.273H66.166v22.756c0,5.947-4.848,10.861-10.861,10.861S44.444,84.04,44.444,78.028V55.273
		H21.689v49.842h268.283V55.273z"/>
	<path style="fill:#FFC10D;" d="M368.582,284.509c0,46.61-37.366,83.976-83.976,83.976c-46.093,0-84.04-37.366-84.04-83.976
		c0-46.093,37.366-84.04,84.04-84.04S368.582,238.481,368.582,284.509z"/>
</g>
<g>
	<path style="fill:#194F82;" d="M311.628,182.626V44.412c0-5.947-4.849-10.861-10.861-10.861h-53.657V10.861
		C247.111,4.913,242.263,0,236.251,0c-5.947,0-10.861,4.848-10.861,10.861v22.756H66.166V10.861C66.166,4.913,61.317,0,55.305,0
		S44.444,4.848,44.444,10.861v22.756H10.893c-5.947,0-10.861,4.848-10.861,10.861V280.76c0,5.948,4.848,10.861,10.861,10.861
		h168.533c3.232,54.756,49.325,98.651,105.115,98.651c57.988,0,105.697-47.127,105.697-105.697
		C390.238,235.766,356.622,194.586,311.628,182.626z M284.541,368.549c-46.093,0-83.976-37.366-83.976-83.976
		c0-46.093,37.366-83.976,83.976-83.976s83.976,37.947,83.976,83.976C368.582,331.119,331.152,368.549,284.541,368.549z
		 M21.689,55.273h22.756v22.756c0,5.947,4.848,10.861,10.861,10.861s10.861-4.848,10.861-10.861V55.273h159.354v22.756
		c0,5.947,4.848,10.861,10.861,10.861c5.947,0,10.861-4.848,10.861-10.861V55.273h42.796v49.842H21.754V55.273H21.689z
		 M21.689,126.836h268.283v53.139c-1.616,0-3.232,0-4.848,0c-53.139,0-97.034,39.564-104.081,90.505H21.689V126.836z"/>
	<path style="fill:#194F82;" d="M91.055,151.725H67.782c-5.947,0-10.861,4.848-10.861,10.861s4.848,10.861,10.861,10.861h23.273
		c5.947,0,10.861-4.848,10.861-10.861S97.067,151.725,91.055,151.725z"/>
	<path style="fill:#194F82;" d="M167.467,151.725h-23.273c-5.947,0-10.861,4.848-10.861,10.861s4.848,10.861,10.861,10.861h23.273
		c5.947,0,10.861-4.848,10.861-10.861S173.479,151.725,167.467,151.725z"/>
	<path style="fill:#194F82;" d="M220.606,173.446h23.273c5.947,0,10.861-4.848,10.861-10.861c0-6.012-4.848-10.861-10.861-10.861
		h-23.273c-5.947,0-10.861,4.848-10.861,10.861C209.745,168.598,214.659,173.446,220.606,173.446z"/>
	<path style="fill:#194F82;" d="M91.055,215.143H67.782c-5.947,0-10.861,4.848-10.861,10.861c0,5.947,4.848,10.861,10.861,10.861
		h23.273c5.947,0,10.861-4.848,10.861-10.861C101.915,220.057,97.067,215.143,91.055,215.143z"/>
	<path style="fill:#194F82;" d="M167.467,215.143h-23.273c-5.947,0-10.861,4.848-10.861,10.861c0,5.947,4.848,10.861,10.861,10.861
		h23.273c5.947,0,10.861-4.848,10.861-10.861C178.327,220.057,173.479,215.143,167.467,215.143z"/>
	<path style="fill:#194F82;" d="M322.489,276.428h-27.087v-53.657c0-5.947-4.848-10.861-10.861-10.861
		c-5.947,0-10.861,4.848-10.861,10.861v64.517c0,5.947,4.848,10.861,10.861,10.861h37.947c5.947,0,10.861-4.848,10.861-10.861
		S328.436,276.428,322.489,276.428z"/>
</g>
</svg>